<?xml version="1.0" encoding="UTF-8" standalone="no"?>
<svg
   width="600.00024"
   height="272.034"
   viewBox="0 0 600.00024 272.034"
   version="1.1"
   id="svg58"
   xmlns="http://www.w3.org/2000/svg"
   xmlns:svg="http://www.w3.org/2000/svg">
  <defs
     id="defs8">
    <clipPath
       id="clip-0">
      <path
         clip-rule="nonzero"
         d="m 183,0.324219 h 10 V 10 h -10 z m 0,0"
         id="path2" />
    </clipPath>
    <clipPath
       id="clip-1">
      <path
         clip-rule="nonzero"
         d="m 212,43 h 23.64062 V 75 H 212 Z m 0,0"
         id="path5" />
    </clipPath>
  </defs>
  <path
     fill-rule="nonzero"
     fill="#3e75c4"
     fill-opacity="1"
     d="m 0,242.25788 c 0,-9.46887 0.5172073,-12.93018 1.5217824,-16.23235 2.8645327,-8.88204 9.9761336,-13.44739 19.6936626,-13.44739 10.085544,0 16.242301,5.06266 19.126725,11.4084 0.248667,0.50726 0.169096,0.93495 -0.258603,1.19355 l -5.082557,2.45674 c -0.497316,0.2586 -0.925007,0.0895 -1.183609,-0.42769 -2.775017,-5.15218 -6.504878,-7.59897 -12.601956,-7.59897 -6.504875,0 -10.642534,3.03362 -12.4129752,8.52397 -0.765864,2.10862 -1.1935553,5.33122 -1.1935553,14.12374 0,8.80247 0.4276913,12.00518 1.1935553,14.12374 1.7704412,5.50031 5.9081002,8.54387 12.4129752,8.54387 5.848421,0 10.592805,-2.88442 12.363245,-8.2952 0.586832,-1.91965 1.094093,-4.7245 1.094093,-9.03125 0,-0.34812 -0.169096,-0.51721 -0.507261,-0.51721 h -11.16969 c -0.507261,0 -0.825543,-0.32822 -0.825543,-0.84543 v -4.91347 c 0,-0.49732 0.318282,-0.83549 0.825543,-0.83549 h 18.350913 c 0.507261,0 0.855382,0.33817 0.855382,0.83549 v 4.32664 c 0,5.17207 -0.596777,9.89655 -1.442214,12.69147 -2.794908,8.70301 -9.966186,13.60653 -19.544468,13.60653 -9.717529,0 -16.8291299,-4.57528 -19.6936626,-13.45735 C 0.5172073,255.20795 0,251.7367 0,242.25788"
     id="path10"
     style="stroke-width:2.54625" />
  <path
     fill-rule="nonzero"
     fill="#3e75c4"
     fill-opacity="1"
     d="m 93.375811,230.09356 c 0,-6.0175 -3.968572,-9.56833 -10.652482,-9.56833 H 69.265993 c -0.328227,0 -0.477422,0.1691 -0.477422,0.5172 v 18.09231 c 0,0.33818 0.149185,0.50727 0.477422,0.50727 h 13.457336 c 6.68391,0 10.652482,-3.55083 10.652482,-9.54845 z m 1.173661,40.90912 c -0.576884,0 -0.835486,-0.25862 -1.084145,-0.82554 L 81.967411,246.66409 H 69.265993 c -0.328227,0 -0.477422,0.16909 -0.477422,0.50726 v 23.00579 c 0,0.50726 -0.348121,0.82554 -0.865328,0.82554 h -5.828527 c -0.517207,0 -0.845434,-0.31828 -0.845434,-0.82554 v -55.80867 c 0,-0.51721 0.328227,-0.85538 0.845434,-0.85538 H 82.88247 c 10.751946,0 18.02268,6.59439 18.02268,16.58047 0,7.77801 -4.396256,13.43745 -11.328822,15.64552 l 12.253832,24.24907 c 0.34812,0.5172 0.0995,1.01453 -0.50726,1.01453 h -6.773428"
     id="path12"
     style="stroke-width:2.54625" />
  <path
     fill-rule="nonzero"
     fill="#3e75c4"
     fill-opacity="1"
     d="m 152.00922,256.38162 c 0.67634,-2.11856 1.26317,-5.82853 1.26317,-14.12374 0,-8.28526 -0.58683,-12.01512 -1.26317,-14.12374 -1.78039,-5.49035 -5.84842,-8.52397 -12.27373,-8.52397 -6.32585,0 -10.41377,3.03362 -12.16432,8.52397 -0.69624,2.10862 -1.27313,5.83848 -1.27313,14.12374 0,8.29521 0.57689,12.00518 1.27313,14.12374 1.75055,5.50031 5.83847,8.54387 12.16432,8.54387 6.42531,0 10.49334,-3.04356 12.27373,-8.54387 z m -31.79831,2.1086 c -1.11398,-3.28227 -1.52178,-6.75352 -1.52178,-16.23234 0,-9.46887 0.4078,-12.93018 1.52178,-16.23235 2.964,-8.88204 9.88662,-13.44739 19.52458,-13.44739 9.72747,0 16.66004,4.56535 19.62404,13.44739 1.10404,3.30217 1.52178,6.76348 1.52178,16.23235 0,9.47882 -0.41774,12.95007 -1.52178,16.23234 -2.964,8.88207 -9.89657,13.45735 -19.62404,13.45735 -9.63796,0 -16.56058,-4.57528 -19.52458,-13.45735"
     id="path14"
     style="stroke-width:2.54625" />
  <path
     fill-rule="nonzero"
     fill="#3e75c4"
     fill-opacity="1"
     d="m 179.91852,250.97084 v -36.60237 c 0,-0.51721 0.33817,-0.85538 0.84543,-0.85538 h 5.83848 c 0.50726,0 0.83549,0.33817 0.83549,0.85538 v 36.5029 c 0,9.31967 5.17207,14.05412 12.86055,14.05412 7.61887,0 12.77105,-4.73445 12.77105,-14.05412 v -36.5029 c 0,-0.51721 0.33817,-0.85538 0.85538,-0.85538 h 5.83847 c 0.49732,0 0.84544,0.33817 0.84544,0.85538 v 36.60237 c 0,13.52696 -7.70838,20.97673 -20.31034,20.97673 -12.68152,0 -20.37995,-7.44977 -20.37995,-20.97673"
     id="path16"
     style="stroke-width:2.54625" />
  <path
     fill-rule="nonzero"
     fill="#3e75c4"
     fill-opacity="1"
     d="m 273.55292,230.67045 c 0,-6.25622 -4.14759,-10.14522 -11.24923,-10.14522 h -12.86057 c -0.33818,0 -0.50727,0.1691 -0.50727,0.5172 v 19.28587 c 0,0.31828 0.1691,0.49731 0.50727,0.49731 h 12.86057 c 7.10164,0 11.24923,-3.889 11.24923,-10.15516 z m -31.29103,40.33223 c -0.50726,0 -0.84543,-0.31828 -0.84543,-0.82554 v -55.80867 c 0,-0.51721 0.33817,-0.85538 0.84543,-0.85538 h 20.46946 c 11.06028,0 18.26141,6.76348 18.26141,17.15736 0,10.40382 -7.20113,17.17725 -18.26141,17.17725 h -13.28823 c -0.33818,0 -0.50727,0.15914 -0.50727,0.49731 v 21.83213 c 0,0.50726 -0.32822,0.82554 -0.83549,0.82554 h -5.83847"
     id="path18"
     style="stroke-width:2.54625" />
  <path
     fill-rule="nonzero"
     fill="#283578"
     fill-opacity="1"
     d="m 22.14045,86.260202 c -0.676346,0 -1.123931,-0.457531 -1.123931,-1.10404 V 25.557967 c 0,-0.447583 -0.218817,-0.676348 -0.6664,-0.676348 H 1.113985 C 0.44758261,24.881619 0,24.424088 0,23.757688 V 11.354659 C 0,10.678311 0.44758261,10.230728 1.113985,10.230728 H 57.36028 c 0.6664,0 1.113985,0.447583 1.113985,1.123931 v 12.403029 c 0,0.6664 -0.447585,1.123931 -1.113985,1.123931 H 38.134091 c -0.457528,0 -0.676345,0.228765 -0.676345,0.676348 v 59.598195 c 0,0.646509 -0.447586,1.10404 -1.123934,1.10404 H 22.14045"
     id="path20"
     style="stroke-width:2.54625" />
  <path
     fill-rule="nonzero"
     fill="#283578"
     fill-opacity="1"
     d="m 109.86677,33.833284 c 0,-5.71912 -4.01831,-9.409196 -10.284472,-9.409196 h -13.41755 c -0.447585,0 -0.666402,0.238711 -0.666402,0.686296 v 17.555209 c 0,0.447583 0.218825,0.656457 0.666402,0.656457 h 13.41755 c 6.266162,0 10.284472,-3.690076 10.284472,-9.488766 z m 1.23334,52.426918 c -1.00458,0 -1.34275,-0.32823 -1.68093,-1.10404 L 96.339808,57.306538 h -10.17506 c -0.447585,0 -0.666402,0.218825 -0.666402,0.666403 v 27.183221 c 0,0.646509 -0.457529,1.10404 -1.123931,1.10404 H 70.171107 c -0.656457,0 -1.123931,-0.457531 -1.123931,-1.10404 V 11.354659 c 0,-0.676348 0.467474,-1.123931 1.123931,-1.123931 h 30.306363 c 15.53611,0 25.82057,9.727475 25.82057,23.602556 0,9.717529 -5.14223,17.425907 -13.52696,21.115983 l 14.97912,29.958239 c 0.33818,0.696239 0,1.352696 -0.77581,1.352696 h -15.87428"
     id="path22"
     style="stroke-width:2.54625" />
  <path
     fill-rule="nonzero"
     fill="#283578"
     fill-opacity="1"
     d="M 138.44247,58.311113 V 11.354659 c 0,-0.676348 0.43764,-1.123931 1.11399,-1.123931 h 14.19336 c 0.67635,0 1.12393,0.447583 1.12393,1.123931 v 47.413985 c 0,9.041181 5.02288,14.183415 12.7412,14.183415 7.59897,0 12.63179,-5.142234 12.63179,-14.183415 V 11.354659 c 0,-0.676348 0.45753,-1.123931 1.12394,-1.123931 h 14.19336 c 0.67635,0 1.12393,0.447583 1.12393,1.123931 v 46.956454 c 0,18.89796 -12.0748,29.182429 -29.07302,29.182429 -17.10762,0 -29.17248,-10.284469 -29.17248,-29.182429"
     id="path24"
     style="stroke-width:2.54625" />
  <path
     fill-rule="nonzero"
     fill="#283578"
     fill-opacity="1"
     d="m 206.69394,77.089717 c -0.44758,-0.447583 -0.67635,-1.223392 -0.10941,-1.909688 l 8.49414,-9.717529 c 0.44758,-0.556993 1.11398,-0.556993 1.67098,-0.109413 5.03282,4.028249 11.85598,7.817789 19.90253,7.817789 7.93714,0 12.41297,-3.68013 12.41297,-9.041184 0,-4.465885 -2.68549,-7.270739 -11.73662,-8.504079 l -4.02825,-0.55699 c -15.4267,-2.11856 -24.04019,-9.389302 -24.04019,-22.806852 0,-13.974546 10.50328,-23.2544377 26.94451,-23.2544377 10.06565,0 19.45495,3.0137277 25.83053,7.9271957 0.66641,0.457531 0.77579,0.905114 0.21873,1.690871 l -6.82314,10.165112 c -0.44758,0.566938 -0.99464,0.666402 -1.56158,0.328227 -5.80864,-3.799483 -11.4084,-5.808636 -17.66462,-5.808636 -6.7038,0 -10.16511,3.471259 -10.16511,8.275317 0,4.356478 3.12313,7.151386 11.83609,8.384727 l 4.02825,0.56694 c 15.65545,2.128506 23.93077,9.269944 23.93077,23.02567 0,13.74578 -10.17505,23.930785 -29.84882,23.930785 -11.85598,0 -23.37379,-4.704596 -29.29184,-10.403825"
     id="path26"
     style="stroke-width:2.54625" />
  <path
     fill-rule="nonzero"
     fill="#283578"
     fill-opacity="1"
     d="m 295.19606,86.260202 c -0.66638,0 -1.11399,-0.457531 -1.11399,-1.10404 V 25.557967 c 0,-0.447583 -0.21872,-0.676348 -0.66638,-0.676348 h -19.23614 c -0.6664,0 -1.12394,-0.457531 -1.12394,-1.123931 V 11.354659 c 0,-0.676348 0.45754,-1.123931 1.12394,-1.123931 h 56.23633 c 0.66641,0 1.12394,0.447583 1.12394,1.123931 v 12.403029 c 0,0.6664 -0.45753,1.123931 -1.12394,1.123931 H 311.1897 c -0.44758,0 -0.66638,0.228765 -0.66638,0.676348 v 59.598195 c 0,0.646509 -0.45754,1.10404 -1.12394,1.10404 h -14.20332"
     id="path28"
     style="stroke-width:2.54625" />
  <path
     fill-rule="nonzero"
     fill="#283578"
     fill-opacity="1"
     d="m 342.11273,11.354659 c 0,-0.676348 0.4476,-1.123931 1.13389,-1.123931 h 48.73683 c 0.66641,0 1.12394,0.447583 1.12394,1.123931 v 11.955444 c 0,0.666403 -0.45753,1.113985 -1.12394,1.113985 h -32.7631 c -0.43762,0 -0.66638,0.238711 -0.66638,0.686296 v 15.088528 c 0,0.437637 0.22866,0.676348 0.66638,0.676348 h 27.29263 c 0.65648,0 1.10406,0.437637 1.10406,1.104039 v 11.855983 c 0,0.6664 -0.44758,1.113985 -1.10406,1.113985 h -27.29263 c -0.43762,0 -0.66638,0.228755 -0.66638,0.676348 v 15.764876 c 0,0.447583 0.22866,0.666402 0.66638,0.666402 h 32.7631 c 0.66641,0 1.12394,0.447583 1.12394,1.113985 v 11.985284 c 0,0.646509 -0.45753,1.10404 -1.12394,1.10404 h -48.73683 c -0.68629,0 -1.13389,-0.457531 -1.13389,-1.10404 V 11.354659"
     id="path30"
     style="stroke-width:2.54625" />
  <path
     fill-rule="nonzero"
     fill="#283578"
     fill-opacity="1"
     d="m 423.22476,71.619256 h 8.61351 c 7.59895,0 12.18419,-2.237918 14.08395,-8.394672 0.78575,-2.22797 1.22337,-5.142236 1.22337,-14.97912 0,-9.826939 -0.43762,-12.751148 -1.22337,-14.989067 -1.89976,-6.136862 -6.485,-8.374778 -14.08395,-8.374778 h -8.61351 c -0.44758,0 -0.67634,0.228765 -0.67634,0.676348 v 45.374996 c 0,0.457528 0.22866,0.686293 0.67634,0.686293 z M 406.11713,11.354659 c 0,-0.676348 0.44758,-1.123931 1.12394,-1.123931 h 28.28725 c 13.29821,0 22.5781,5.709172 26.26817,17.107626 1.34274,4.247066 2.00915,8.494134 2.00915,20.90711 0,12.422923 -0.66641,16.660043 -2.00915,20.907112 -3.69007,11.4084 -12.96996,17.107626 -26.26817,17.107626 h -28.28725 c -0.67636,0 -1.12394,-0.457531 -1.12394,-1.10404 V 11.354659"
     id="path32"
     style="stroke-width:2.54625" />
  <g
     clip-path="url(#clip-0)"
     id="g36"
     transform="matrix(2.5462513,0,0,2.5462513,0,-0.50132406)">
    <path
       fill-rule="nonzero"
       fill="#283578"
       fill-opacity="1"
       d="m 187.23437,4.410156 h 0.81641 c 0.12109,0 0.24609,-0.019531 0.375,-0.046875 0.12109,-0.023437 0.22266,-0.070312 0.32031,-0.128906 0.0859,-0.058594 0.16407,-0.132813 0.21485,-0.214844 0.0586,-0.085937 0.0937,-0.183593 0.0937,-0.304687 0,-0.136719 -0.0312,-0.253906 -0.0664,-0.355469 -0.0312,-0.101563 -0.0859,-0.175781 -0.17578,-0.246094 -0.0781,-0.054687 -0.18359,-0.101562 -0.32031,-0.121093 -0.125,-0.03125 -0.29297,-0.039063 -0.47657,-0.039063 h -0.78125 z m 0,0.796875 v 1.996094 h -0.89062 V 2.164062 h 1.67187 c 0.28125,0 0.54688,0.027344 0.78516,0.097657 0.23438,0.066406 0.4375,0.160156 0.60938,0.292969 0.16796,0.132812 0.29687,0.292968 0.38671,0.488281 0.0898,0.195312 0.13672,0.417969 0.13672,0.671875 0,0.230468 -0.0586,0.433594 -0.17187,0.605468 -0.10938,0.167969 -0.28125,0.316407 -0.49219,0.433594 0.24219,0.125 0.40625,0.296875 0.5,0.515625 0.0977,0.21875 0.14844,0.472657 0.14844,0.753907 v 0.328124 c 0,0.148438 0.008,0.292969 0.0195,0.421876 0.0156,0.128906 0.043,0.242187 0.0781,0.335937 v 0.09375 h -0.91406 c -0.0234,-0.058594 -0.0391,-0.117187 -0.0469,-0.199219 -0.008,-0.074218 -0.0273,-0.164062 -0.0273,-0.242187 -0.004,-0.082031 -0.008,-0.167969 -0.008,-0.238281 0,-0.074219 0,-0.132813 0,-0.179688 V 6.023438 c 0,-0.277344 -0.0625,-0.484376 -0.19141,-0.617188 -0.1289,-0.132812 -0.35546,-0.199219 -0.65625,-0.199219 z m -2.6289,-0.453125 c 0,0.519532 0.0898,1.003906 0.26953,1.460938 0.1875,0.449218 0.42969,0.839844 0.75,1.175781 0.31641,0.328125 0.6875,0.589844 1.10937,0.78125 0.42188,0.1875 0.8711,0.289063 1.35938,0.289063 0.31641,0 0.625,-0.046876 0.91797,-0.132813 0.29687,-0.085937 0.57812,-0.210937 0.83203,-0.367187 0.26172,-0.15625 0.49219,-0.347657 0.71094,-0.578126 0.20703,-0.210937 0.38672,-0.46875 0.54297,-0.738281 0.14843,-0.28125 0.25781,-0.574219 0.34375,-0.894531 0.0859,-0.320312 0.125,-0.652344 0.125,-0.996094 0,-0.347656 -0.0391,-0.683594 -0.125,-1 -0.0859,-0.320312 -0.19532,-0.617187 -0.34375,-0.890625 C 190.94141,2.589844 190.76172,2.347656 190.55469,2.125 190.33594,1.90625 190.10547,1.710938 189.84375,1.550781 189.58984,1.398438 189.30859,1.277344 189.01172,1.191406 188.71875,1.105469 188.41016,1.0625 188.09375,1.0625 c -0.48828,0 -0.9375,0.09375 -1.35938,0.289062 -0.42187,0.183594 -0.79296,0.445313 -1.10937,0.769532 -0.32031,0.332031 -0.5625,0.726562 -0.75,1.167968 -0.17969,0.453126 -0.26953,0.933594 -0.26953,1.464844 z m -0.71875,0 c 0,-0.421875 0.0469,-0.820312 0.14453,-1.203125 0.10547,-0.378906 0.23828,-0.734375 0.42969,-1.066406 0.17968,-0.324219 0.39843,-0.621094 0.65625,-0.894531 0.2539,-0.265625 0.54297,-0.488282 0.85156,-0.679688 0.30859,-0.183594 0.64453,-0.328125 1.00391,-0.429687 0.35546,-0.105469 0.72656,-0.15625 1.12109,-0.15625 0.37891,0 0.75781,0.050781 1.10547,0.15625 0.36719,0.101562 0.69922,0.246093 1.01562,0.429687 0.3125,0.191406 0.59766,0.414063 0.85157,0.679688 0.25781,0.273437 0.48046,0.570312 0.65625,0.894531 0.18359,0.332031 0.32031,0.6875 0.42187,1.066406 0.10156,0.382813 0.16016,0.78125 0.16016,1.203125 0,0.625 -0.11719,1.210938 -0.33985,1.746094 -0.21484,0.546875 -0.52343,1.011719 -0.90234,1.410156 -0.38672,0.402344 -0.83203,0.714844 -1.33594,0.9375 -0.50781,0.226563 -1.05469,0.34375 -1.63281,0.34375 -0.39453,0 -0.76563,-0.050781 -1.12109,-0.152344 -0.35938,-0.109374 -0.69532,-0.25 -1.00391,-0.441406 -0.30859,-0.1875 -0.59766,-0.417968 -0.85156,-0.6875 -0.25782,-0.269531 -0.47657,-0.566406 -0.65625,-0.894531 -0.19141,-0.324219 -0.32422,-0.683594 -0.42969,-1.0625 -0.0977,-0.378906 -0.14453,-0.78125 -0.14453,-1.199219"
       id="path34" />
  </g>
  <path
     fill-rule="nonzero"
     fill="#283578"
     fill-opacity="1"
     d="m 0,150.4138 c 0,-11.75652 0.44758261,-15.65547 2.11856,-20.58883 4.0282486,-12.40303 13.755726,-18.65925 27.053921,-18.65925 12.860557,0 22.249859,6.25622 26.496928,16.87886 0.338175,0.57689 0.119342,1.12393 -0.556993,1.34275 l -12.18421,5.48041 c -0.676348,0.33818 -1.223395,0.10941 -1.571513,-0.55699 -2.128508,-4.92342 -5.689283,-8.61349 -12.064857,-8.61349 -5.927991,0 -9.727474,3.13308 -11.408398,8.39467 -0.885222,2.78496 -1.223394,5.46052 -1.223394,16.32187 0,10.84146 0.338172,13.52696 1.223394,16.32187 1.680924,5.24169 5.480407,8.37478 11.408398,8.37478 6.375574,0 9.936349,-3.69008 12.064857,-8.5936 0.348118,-0.67635 0.895165,-0.90511 1.571513,-0.56694 l 12.18421,5.47046 c 0.676348,0.21883 0.895168,0.79571 0.556993,1.34275 -4.247069,10.62264 -13.636371,16.88881 -26.496928,16.88881 -13.298195,0 -23.0256724,-6.26617 -27.053921,-18.66919 C 0.44758261,166.05932 0,162.14048 0,150.4138"
     id="path38"
     style="stroke-width:2.54625" />
  <path
     fill-rule="nonzero"
     fill="#283578"
     fill-opacity="1"
     d="m 107.01218,166.73567 c 0.89517,-2.69545 1.22339,-6.37558 1.22339,-16.32187 0,-9.95624 -0.32822,-13.64632 -1.22339,-16.32187 -1.68092,-5.26159 -5.70917,-8.39467 -11.965392,-8.39467 -6.266164,0 -10.284469,3.13308 -11.955447,8.39467 -0.895165,2.67555 -1.243286,6.36563 -1.243286,16.32187 0,9.94629 0.348121,13.62642 1.243286,16.32187 1.670978,5.24169 5.689283,8.37478 11.955447,8.37478 6.256222,0 10.284472,-3.13309 11.965392,-8.37478 z m -39.69566,4.47583 c -1.670978,-5.26159 -2.11856,-9.50866 -2.11856,-20.7977 0,-11.29899 0.447582,-15.54606 2.11856,-20.7977 3.908893,-12.30357 14.422125,-18.45038 27.730268,-18.45038 13.308142,0 23.821372,6.14681 27.730272,18.45038 1.68092,5.25164 2.1285,9.49871 2.1285,20.7977 0,11.28904 -0.44758,15.53611 -2.1285,20.7977 -3.9089,12.29362 -14.42213,18.44043 -27.730272,18.44043 -13.308143,0 -23.821375,-6.14681 -27.730268,-18.44043"
     id="path40"
     style="stroke-width:2.54625" />
  <path
     fill-rule="nonzero"
     fill="#283578"
     fill-opacity="1"
     d="m 138.12419,113.51305 c 0,-0.65646 0.44758,-1.11399 1.12393,-1.11399 h 13.30814 c 0.89517,0 1.45216,0.32823 1.78039,1.11399 l 19.23613,43.38573 h 0.44758 l 18.90791,-43.38573 c 0.32823,-0.78576 0.87527,-1.11399 1.77044,-1.11399 h 13.08932 c 0.66641,0 1.11399,0.45753 1.11399,1.11399 v 73.79155 c 0,0.66641 -0.44758,1.11399 -1.11399,1.11399 h -12.63179 c -0.67635,0 -1.12393,-0.44758 -1.12393,-1.11399 v -42.81879 h -0.44758 l -14.08396,32.08674 c -0.44758,1.01452 -1.12393,1.45216 -2.1285,1.45216 h -7.70838 c -1.00458,0 -1.68093,-0.43764 -2.12851,-1.45216 l -14.08395,-32.08674 h -0.44758 v 42.81879 c 0,0.66641 -0.44759,1.11399 -1.11399,1.11399 h -12.64174 c -0.67635,0 -1.12393,-0.44758 -1.12393,-1.11399 v -73.79155"
     id="path42"
     style="stroke-width:2.54625" />
  <path
     fill-rule="nonzero"
     fill="#283578"
     fill-opacity="1"
     d="m 264.92951,136.87689 c 0,-6.14681 -4.13766,-10.28447 -11.06029,-10.28447 h -12.53234 c -0.44758,0 -0.6664,0.22876 -0.6664,0.67635 v 19.11678 c 0,0.43764 0.21883,0.67635 0.6664,0.67635 h 12.53234 c 6.92263,0 11.06029,-4.0382 11.06029,-10.18501 z m -39.57632,51.5417 c -0.67635,0 -1.12393,-0.44758 -1.12393,-1.11399 v -73.79155 c 0,-0.65646 0.44758,-1.11399 1.12393,-1.11399 h 29.52061 c 16.54068,0 26.49693,9.9463 26.49693,24.47783 0,14.32267 -10.06566,24.37837 -26.49693,24.37837 h -13.53692 c -0.44758,0 -0.6664,0.21883 -0.6664,0.67635 v 25.37299 c 0,0.66641 -0.44758,1.11399 -1.11398,1.11399 h -14.20331"
     id="path44"
     style="stroke-width:2.54625" />
  <path
     fill-rule="nonzero"
     fill="#283578"
     fill-opacity="1"
     d="m 292.51058,160.4695 v -46.95645 c 0,-0.65646 0.44758,-1.11399 1.12391,-1.11399 h 14.19337 c 0.6664,0 1.12394,0.45753 1.12394,1.11399 v 47.41398 c 0,9.05113 5.02286,14.18342 12.74119,14.18342 7.59898,0 12.6318,-5.13229 12.6318,-14.18342 v -47.41398 c 0,-0.65646 0.44758,-1.11399 1.11398,-1.11399 h 14.19337 c 0.67633,0 1.12394,0.45753 1.12394,1.11399 v 46.95645 c 0,18.89796 -12.06488,29.18243 -29.06309,29.18243 -17.10763,0 -29.18241,-10.28447 -29.18241,-29.18243"
     id="path46"
     style="stroke-width:2.54625" />
  <path
     fill-rule="nonzero"
     fill="#283578"
     fill-opacity="1"
     d="m 385.99579,188.41859 c -0.65645,0 -1.11399,-0.44758 -1.11399,-1.11399 v -59.58824 c 0,-0.44759 -0.21872,-0.6863 -0.6664,-0.6863 h -19.22618 c -0.6863,0 -1.12395,-0.43764 -1.12395,-1.10404 v -12.41297 c 0,-0.65646 0.43765,-1.11399 1.12395,-1.11399 h 56.23635 c 0.6664,0 1.11398,0.45753 1.11398,1.11399 v 12.41297 c 0,0.6664 -0.44758,1.10404 -1.11398,1.10404 h -19.23614 c -0.44758,0 -0.6664,0.23871 -0.6664,0.6863 v 59.58824 c 0,0.66641 -0.44758,1.11399 -1.11399,1.11399 h -14.21325"
     id="path48"
     style="stroke-width:2.54625" />
  <path
     fill-rule="nonzero"
     fill="#283578"
     fill-opacity="1"
     d="m 434.9614,113.51305 c 0,-0.65646 0.44758,-1.11399 1.12391,-1.11399 h 14.19337 c 0.6664,0 1.11398,0.45753 1.11398,1.11399 v 73.79155 c 0,0.66641 -0.44758,1.11399 -1.11398,1.11399 h -14.19337 c -0.67633,0 -1.12391,-0.44758 -1.12391,-1.11399 v -73.79155"
     id="path50"
     style="stroke-width:2.54625" />
  <path
     fill-rule="nonzero"
     fill="#283578"
     fill-opacity="1"
     d="m 468.22181,113.51305 c 0,-0.65646 0.43762,-1.11399 1.11398,-1.11399 h 13.41755 c 0.77582,0 1.44222,0.32823 1.89973,1.11399 l 26.83512,47.86157 h 0.557 v -47.86157 c 0,-0.65646 0.44758,-1.11399 1.11398,-1.11399 h 12.64173 c 0.66641,0 1.11399,0.45753 1.11399,1.11399 v 73.79155 c 0,0.66641 -0.44758,1.11399 -1.11399,1.11399 h -13.30813 c -0.89519,0 -1.46211,-0.32823 -1.89976,-1.11399 L 483.6485,139.55245 h -0.55699 v 47.75215 c 0,0.66641 -0.44758,1.11399 -1.12392,1.11399 h -12.6318 c -0.67636,0 -1.11398,-0.44758 -1.11398,-1.11399 v -73.79155"
     id="path52"
     style="stroke-width:2.54625" />
  <g
     clip-path="url(#clip-1)"
     id="g56"
     transform="matrix(2.5462513,0,0,2.5462513,0,-0.50132406)">
    <path
       fill-rule="nonzero"
       fill="#283578"
       fill-opacity="1"
       d="m 212.19141,59.269531 c 0,-4.4375 0.17578,-6.105469 0.83203,-8.167969 1.53906,-4.832031 5.66797,-7.246093 10.98047,-7.246093 5.57421,0 9.22265,2.765625 10.6289,6.367187 0.12891,0.261719 0.082,0.527344 -0.17578,0.664063 l -4.69922,1.972656 c -0.30859,0.08594 -0.53125,0 -0.61719,-0.222656 -1.1875,-2.019531 -2.67968,-3.074219 -5.13671,-3.074219 -2.55079,0 -4.125,1.269531 -4.78516,3.339844 -0.35547,1.050781 -0.48438,2.457031 -0.48438,6.367187 0,3.90625 0.12891,5.351563 0.48438,6.410157 0.66016,2.058593 2.28125,3.289062 4.87109,3.289062 2.23828,0 4.17188,-1.097656 4.78907,-3.070312 0.21875,-0.75 0.34765,-1.667969 0.34765,-2.941407 0,-0.175781 -0.0859,-0.261719 -0.26172,-0.261719 h -4.03906 c -0.26172,0 -0.4375,-0.179687 -0.4375,-0.441406 v -4.21875 c 0,-0.257812 0.17578,-0.433594 0.4375,-0.433594 h 10.27344 c 0.26562,0 0.4414,0.175782 0.4414,0.433594 v 2.460938 c 0,2.632812 -0.21875,5.097656 -0.74609,6.71875 -1.49609,4.785156 -5.62109,7.464844 -10.89062,7.464844 -5.3125,0 -9.44141,-2.414063 -10.98047,-7.242188 -0.65625,-2.066406 -0.83203,-3.734375 -0.83203,-8.167969"
       id="path54" />
  </g>
</svg>
