<?xml version="1.0" encoding="UTF-8" standalone="no"?>
<!-- Created with Inkscape (http://www.inkscape.org/) -->

<svg
   width="158.75mm"
   height="73.025002mm"
   viewBox="0 0 158.75 73.025002"
   version="1.1"
   id="svg5"
   xml:space="preserve"
   xmlns="http://www.w3.org/2000/svg"
   xmlns:svg="http://www.w3.org/2000/svg"><defs
     id="defs2" /><g
     id="layer1"
     transform="translate(-25.624998,-36.860001)"><g
       id="g1369"><text
         xml:space="preserve"
         style="font-size:29.0221px;line-height:1.25;font-family:'Walt Disney Script';-inkscape-font-specification:'Walt Disney Script';text-align:center;letter-spacing:0.264583px;word-spacing:0px;text-anchor:middle;fill:#283577;fill-opacity:1;stroke-width:0.272083"
         x="26.54027"
         y="60.343967"
         id="text429"><tspan
           id="tspan427"
           style="font-style:normal;font-variant:normal;font-weight:bold;font-stretch:normal;font-size:29.0221px;font-family:'DIN Next LT Pro';-inkscape-font-specification:'DIN Next LT Pro Bold';text-align:start;text-anchor:start;fill:#283577;fill-opacity:1;stroke-width:0.272083"
           x="26.54027"
           y="60.343967">T<tspan
   style="letter-spacing:0px;fill:#283577;fill-opacity:1"
   id="tspan611">RU</tspan><tspan
   style="letter-spacing:0.529167px;fill:#283577;fill-opacity:1"
   id="tspan613">S</tspan>TED</tspan></text><text
         xml:space="preserve"
         style="font-size:29.0221px;line-height:1.25;font-family:'Walt Disney Script';-inkscape-font-specification:'Walt Disney Script';text-align:center;letter-spacing:0.264583px;word-spacing:0px;text-anchor:middle;fill:#283577;fill-opacity:1;stroke-width:0.272083"
         x="25.669607"
         y="86.926369"
         id="text563"><tspan
           id="tspan561"
           style="font-style:normal;font-variant:normal;font-weight:bold;font-stretch:normal;font-size:29.0221px;font-family:'DIN Next LT Pro';-inkscape-font-specification:'DIN Next LT Pro Bold';text-align:start;text-anchor:start;fill:#283577;fill-opacity:1;stroke-width:0.272083"
           x="25.669607"
           y="86.926369">COMP<tspan
   style="letter-spacing:1.05833px;fill:#283577;fill-opacity:1"
   id="tspan648">U</tspan><tspan
   style="letter-spacing:0.492127px;fill:#283577;fill-opacity:1"
   id="tspan565"><tspan
   style="letter-spacing:0.926042px;fill:#283577;fill-opacity:1"
   id="tspan650">T</tspan>ING</tspan></tspan></text><text
         xml:space="preserve"
         style="font-size:22.1699px;line-height:1.25;font-family:'Walt Disney Script';-inkscape-font-specification:'Walt Disney Script';text-align:center;letter-spacing:1.71979px;word-spacing:0px;text-anchor:middle;fill:#2a79bd;fill-opacity:1;stroke-width:0.207842"
         x="25.702356"
         y="108.4388"
         id="text714"><tspan
           id="tspan712"
           style="font-style:normal;font-variant:normal;font-weight:normal;font-stretch:normal;font-size:22.1699px;font-family:DINNextLTPro-Regular;-inkscape-font-specification:DINNextLTPro-Regular;text-align:start;text-anchor:start;fill:#2a79bd;fill-opacity:1;stroke-width:0.207842"
           x="25.702356"
           y="108.4388">GROUP</tspan></text><path
         id="path474"
         style="font-size:15.3388px;line-height:1.25;font-family:DINNextLTPro-Regular;-inkscape-font-specification:DINNextLTPro-Regular;text-align:start;letter-spacing:1.18987px;word-spacing:0px;text-anchor:start;fill:#283577;fill-opacity:1;stroke-width:0.1438"
         d="m 151.54237,38.13132 c -0.41926,0 -0.80791,0.07709 -1.16582,0.230477 -0.34767,0.143162 -0.65449,0.347527 -0.92036,0.6134 -0.26587,0.265872 -0.47551,0.577438 -0.6289,0.935343 -0.14315,0.357905 -0.21498,0.7418 -0.21498,1.150834 0,0.419261 0.0718,0.807399 0.21498,1.165304 0.15339,0.357904 0.36303,0.669988 0.6289,0.93586 0.26587,0.265873 0.57269,0.475514 0.92036,0.628902 0.35791,0.143163 0.74656,0.214974 1.16582,0.214974 0.41926,0 0.80791,-0.07181 1.16582,-0.214974 0.35791,-0.153388 0.6647,-0.363029 0.92035,-0.628902 0.26587,-0.265872 0.47024,-0.577956 0.6134,-0.93586 0.15338,-0.357905 0.22996,-0.746043 0.22996,-1.165304 0,-0.409034 -0.0766,-0.792929 -0.22996,-1.150834 -0.14316,-0.357905 -0.34753,-0.669471 -0.6134,-0.935343 -0.25565,-0.265873 -0.56244,-0.470238 -0.92035,-0.6134 -0.35791,-0.153392 -0.74656,-0.230477 -1.16582,-0.230477 z m 0,0.506429 c 0.34768,0 0.66451,0.06126 0.95084,0.183969 0.29655,0.122709 0.55213,0.291686 0.76688,0.506429 0.21474,0.214742 0.38372,0.470328 0.50643,0.766878 0.12267,0.29655 0.18397,0.618669 0.18397,0.966349 0,0.347679 -0.0613,0.6698 -0.18397,0.966349 -0.12271,0.29655 -0.29169,0.556896 -0.50643,0.781865 -0.21475,0.214743 -0.47033,0.383719 -0.76688,0.506429 -0.28633,0.122716 -0.60316,0.183968 -0.95084,0.183968 -0.34768,0 -0.6698,-0.06126 -0.96635,-0.183968 -0.28633,-0.12271 -0.53715,-0.291686 -0.75189,-0.506429 -0.21475,-0.224969 -0.38321,-0.485315 -0.50592,-0.781865 -0.12267,-0.296549 -0.18396,-0.61867 -0.18396,-0.966349 0,-0.34768 0.0613,-0.669799 0.18396,-0.966349 0.12271,-0.29655 0.29117,-0.552136 0.50592,-0.766878 0.21474,-0.214743 0.46556,-0.38372 0.75189,-0.506429 0.29655,-0.122706 0.61867,-0.183969 0.96635,-0.183969 z m -0.90692,0.852662 c -0.10457,0 -0.17321,0.0086 -0.20671,0.02532 -0.0335,0.01673 -0.0501,0.04602 -0.0501,0.08785 v 2.942456 c 0,0.04183 0.0186,0.0691 0.0563,0.08165 0.0418,0.01252 0.1297,0.0186 0.26355,0.0186 0.12969,0 0.21555,-0.0061 0.25735,-0.0186 0.046,-0.01255 0.0687,-0.03982 0.0687,-0.08165 v -1.104325 h 0.30747 0.0124 c 0.62751,-0.0039 0.68206,0.08184 0.76636,0.395841 0.0552,0.20569 -0.003,0.51204 0.0305,0.696082 0.0125,0.04601 0.0377,0.07732 0.0754,0.09405 0.0376,0.01252 0.10826,0.0186 0.23203,0.0186 0.0457,0 0.13286,0.0077 0.19896,-0.03049 0.0223,-0.01288 0.0222,-0.04438 0.0222,-0.06976 0.002,-0.463558 0.10932,-1.086883 -0.37621,-1.21698 0.3764,-0.142215 0.41238,-0.426534 0.41238,-0.853178 0,-0.347171 -0.0965,-0.598163 -0.28887,-0.752925 -0.19241,-0.154764 -0.504,-0.232544 -0.93483,-0.232544 z m 0.38912,0.527099 h 0.44545 c 0.23842,0 0.40158,0.03131 0.48938,0.09405 0.0879,0.05856 0.13177,0.180277 0.13177,0.364319 0,0.184043 -0.046,0.309275 -0.13798,0.376205 -0.0878,0.06692 -0.24894,0.100252 -0.48317,0.100252 h -0.44545 z" /></g></g></svg>
